# Blender v2.79 (sub 0) OBJ File: ''
# www.blender.org
mtllib box.mtl
o Cube
v 1.000000 0.164987 -0.834168
v 1.000000 0.164987 0.834168
v -1.000000 -0.000844 1.000000
v -1.000000 -0.000844 -1.000000
v 1.000000 1.833324 -0.834168
v 0.999999 1.833324 0.834169
v -1.000000 1.999156 1.000000
v -1.000000 1.999156 -1.000000
v 1.000000 -0.000844 -1.000000
v 1.000000 -0.000844 1.000000
v 1.000000 1.999156 -0.999999
v 0.999999 1.999156 1.000001
v 0.301665 3.047196 -0.301665
v -0.301665 3.047196 -0.301665
v -0.301665 3.047196 0.301665
v 0.301665 3.047196 0.301665
v -0.681885 0.164987 -0.834168
v -0.681885 0.164987 0.834168
v -0.681885 1.833324 -0.834168
v -0.681886 1.833324 0.834169
vn 0.0000 -1.0000 0.0000
vn 0.0000 1.0000 0.0000
vn -0.0000 -0.0000 1.0000
vn -1.0000 -0.0000 -0.0000
vn 0.0000 0.0000 -1.0000
vn 1.0000 0.0000 -0.0000
vn 0.0000 0.5545 -0.8322
vn -0.8322 0.5545 -0.0000
vn -0.0000 0.5545 0.8322
vn 0.8322 0.5545 0.0000
usemtl Material
s off
f 9//1 10//1 3//1 4//1
f 13//2 14//2 15//2 16//2
f 5//1 6//1 20//1 19//1
f 10//3 12//3 7//3 3//3
f 3//4 7//4 8//4 4//4
f 11//5 9//5 4//5 8//5
f 1//6 2//6 10//6 9//6
f 5//6 1//6 9//6 11//6
f 2//6 6//6 12//6 10//6
f 6//6 5//6 11//6 12//6
f 11//7 8//7 14//7 13//7
f 8//8 7//8 15//8 14//8
f 7//9 12//9 16//9 15//9
f 12//10 11//10 13//10 16//10
f 17//6 19//6 20//6 18//6
f 1//3 5//3 19//3 17//3
f 6//5 2//5 18//5 20//5
f 2//2 1//2 17//2 18//2
