# Blender v2.79 (sub 0) OBJ File: ''
# www.blender.org
mtllib glassbox.mtl
o Cube
v 1.000000 -1.000000 -1.000000
v 1.000000 -1.000000 1.000000
v -1.000000 -1.000000 1.000000
v -1.000000 -1.000000 -1.000000
v 1.000000 1.000000 -0.999999
v 0.999999 1.000000 1.000001
v -1.000000 1.000000 1.000000
v -1.000000 1.000000 -1.000000
v -1.000000 -0.850000 0.850000
v 1.000000 -0.850000 0.850000
v -1.000000 -0.850000 -0.850000
v 1.000000 -0.850000 -0.850000
v -1.000000 0.818932 0.850000
v -1.000000 0.850000 -0.850000
v 1.000000 0.850000 -0.850000
v -1.000000 0.850000 0.850000
v 1.000000 0.850000 0.850000
vn 0.0000 -1.0000 0.0000
vn 0.0000 1.0000 0.0000
vn 1.0000 -0.0000 -0.0000
vn -0.0000 -0.0000 1.0000
vn -1.0000 0.0000 -0.0000
vn 0.0000 0.0000 -1.0000
usemtl Material
s off
f 1//1 2//1 3//1 4//1
f 5//2 8//2 7//2 6//2
f 1//3 5//3 15//3 12//3 10//3 2//3
f 2//4 6//4 7//4 3//4
f 3//5 7//5 13//5 9//5 11//5 4//5
f 5//6 1//6 4//6 8//6
f 2//3 10//3 17//3 15//3 5//3 6//3
f 17//1 16//1 14//1 15//1
f 11//4 12//4 15//4 14//4
f 10//6 9//6 13//6 16//6 17//6
f 4//5 11//5 14//5 16//5 13//5 7//5 8//5
f 9//2 10//2 12//2 11//2
